# File created by Blade
# Date/Time:  Tue Jan 27 19:38:14 2015
# Frame Rate: 120.000 fps
#------------------------------------------------------
:FULLY-SPECIFIED
:DEGREES
3463
root 3.840757 32.313558 2.433660 -0.794744 -29.305688 -1.841461
Spine 4.595484 -17.454945 -4.119012
Head 13.012881 30.442411 11.770585
LeftShoulder -14.311441 3.905825 31.097763
LeftArm -9.761834 38.691009 -108.996205
LeftForeArm 2.437992 -0.000000 21.483723
LeftHand 10.163723 -0.000000 -4.754467
LeftHandThumb1 -26.253704 0.000000 33.147579
RightShoulder -32.812137 -22.447993 -22.413978
RightArm -32.825490 59.710171 63.520605
RightForeArm 34.826293 -0.000000 99.205394
RightHand 24.440006 0.000000 -59.575026
RightHandThumb1 -24.326973 -0.000000 -32.862282
LeftUpLeg 11.864540 16.858953 -0.396296
LeftLeg -0.972279 -0.000000 0.000000
LeftFoot -21.709886 20.480788 -25.414655
LeftToeBase 15.484112 -0.000000 -0.000000
RightUpLeg -0.814286 12.670216 5.822605
RightLeg 10.581228 -0.000000 -0.000000
RightFoot -9.348027 -4.900992 10.228478
RightToeBase 9.207694 -0.000000 -0.000000
3464
root 3.832917 32.313437 2.438816 -0.790347 -29.268911 -1.841389
Spine 4.582352 -17.454540 -4.112867
Head 13.015299 30.406230 11.788759
LeftShoulder -14.308550 3.917104 31.102113
LeftArm -9.823544 38.768598 -109.079093
LeftForeArm 2.448012 -0.000000 21.369171
LeftHand 10.082195 -0.000000 -4.924582
LeftHandThumb1 -26.253704 0.000000 33.147579
RightShoulder -32.829581 -22.473185 -22.374257
RightArm -32.752819 59.686521 63.559368
RightForeArm 34.871404 -0.000000 99.129620
RightHand 24.480985 -0.000000 -59.478593
RightHandThumb1 -24.326973 -0.000000 -32.862282
LeftUpLeg 11.868388 16.832065 -0.385205
LeftLeg -0.967841 -0.000000 0.000000
LeftFoot -21.730676 20.455932 -25.455089
LeftToeBase 15.570440 -0.000000 -0.000000
RightUpLeg -0.805954 12.676317 5.831579
RightLeg 10.591422 -0.000000 -0.000000
RightFoot -9.365138 -4.925104 10.235750
RightToeBase 9.191094 -0.000000 -0.000000
3465
root 3.826006 32.312265 2.446023 -0.797084 -29.249078 -1.829860
Spine 4.573286 -17.437102 -4.116062
Head 13.017499 30.373228 11.803778
LeftShoulder -14.322090 3.908131 31.118187
LeftArm -9.903422 38.883917 -109.178648
LeftForeArm 2.391891 -0.000000 21.300885
LeftHand 9.904187 -0.000000 -4.953206
LeftHandThumb1 -26.253704 0.000000 33.147579
RightShoulder -32.845434 -22.490672 -22.339803
RightArm -32.731064 59.687239 63.549886
RightForeArm 34.960570 -0.000000 99.070545
RightHand 24.415343 0.000000 -59.551237
RightHandThumb1 -24.326973 -0.000000 -32.862282
LeftUpLeg 11.891096 16.817693 -0.384886
LeftLeg -0.980106 -0.000000 0.000000
LeftFoot -21.718548 20.448410 -25.448063
LeftToeBase 15.566703 -0.000000 -0.000000
RightUpLeg -0.777522 12.690641 5.833775
RightLeg 10.578708 -0.000000 -0.000000
RightFoot -9.396276 -4.953910 10.236875
RightToeBase 9.137513 -0.000000 -0.000000
3466
root 3.818684 32.311590 2.451803 -0.793569 -29.214199 -1.835357
Spine 4.560240 -17.435433 -4.102093
Head 13.033559 30.350171 11.818008
LeftShoulder -14.325581 3.935212 31.118883
LeftArm -9.926804 38.989416 -109.244118
LeftForeArm 2.351521 0.000000 21.197315
LeftHand 9.949743 0.000000 -4.922933
LeftHandThumb1 -26.253704 0.000000 33.147579
RightShoulder -32.871922 -22.516015 -22.306207
RightArm -32.675170 59.673610 63.578799
RightForeArm 35.083252 -0.000000 99.010361
RightHand 24.442113 -0.000000 -59.601645
RightHandThumb1 -24.326973 -0.000000 -32.862282
LeftUpLeg 11.902355 16.788207 -0.370976
LeftLeg -0.971377 -0.000000 0.000000
LeftFoot -21.742455 20.404216 -25.477627
LeftToeBase 15.657110 -0.000000 -0.000000
RightUpLeg -0.754587 12.664478 5.847476
RightLeg 10.569413 -0.000000 -0.000000
RightFoot -9.412958 -4.958158 10.240725
RightToeBase 9.198856 -0.000000 -0.000000
3467
root 3.811667 32.311232 2.457417 -0.795304 -29.202254 -1.837387
Spine 4.558283 -17.420636 -4.097116
Head 13.033612 30.333551 11.838980
LeftShoulder -14.336177 3.934789 31.131269
LeftArm -9.996784 39.076321 -109.330002
LeftForeArm 2.382837 -0.000000 21.115222
LeftHand 9.882765 -0.000000 -4.979174
LeftHandThumb1 -26.253704 0.000000 33.147579
RightShoulder -32.898141 -22.515145 -22.272414
RightArm -32.625306 59.680967 63.600979
RightForeArm 35.121124 0.000000 98.960246
RightHand 24.406675 -0.000000 -59.650785
RightHandThumb1 -24.326973 -0.000000 -32.862282
LeftUpLeg 11.925966 16.780383 -0.354178
LeftLeg -0.991889 -0.000000 0.000000
LeftFoot -21.733538 20.410556 -25.482161
LeftToeBase 15.581067 -0.000000 -0.000000
RightUpLeg -0.735321 12.621783 5.856361
RightLeg 10.566786 -0.000000 -0.000000
RightFoot -9.420999 -4.918633 10.234043
RightToeBase 9.212965 -0.000000 -0.000000
3468
root 3.803398 32.310277 2.463506 -0.797104 -29.201284 -1.845644
Spine 4.551059 -17.398792 -4.088872
Head 13.061880 30.317800 11.877246
LeftShoulder -14.349617 3.982792 31.136743
LeftArm -10.006808 39.120887 -109.368758
LeftForeArm 2.475129 -0.000000 21.044071
LeftHand 9.863771 0.000000 -5.043486
LeftHandThumb1 -26.253704 0.000000 33.147579
RightShoulder -32.923655 -22.514402 -22.247592
RightArm -32.582200 59.707824 63.629455
RightForeArm 35.147845 -0.000000 98.919938
RightHand 24.422796 -0.000000 -59.640658
RightHandThumb1 -24.326973 -0.000000 -32.862282
LeftUpLeg 11.959504 16.739825 -0.342229
LeftLeg -1.007382 -0.000000 0.000000
LeftFoot -21.763118 20.418139 -25.525553
LeftToeBase 15.673021 -0.000000 -0.000000
RightUpLeg -0.704315 12.605634 5.874024
RightLeg 10.548085 -0.000000 -0.000000
RightFoot -9.404913 -4.913965 10.191134
RightToeBase 9.105962 -0.000000 -0.000000
3469
root 3.798404 32.309773 2.468048 -0.789628 -29.203573 -1.844844
Spine 4.533013 -17.386585 -4.080097
Head 13.086324 30.327978 11.903729
LeftShoulder -14.339645 3.995589 31.142974
LeftArm -10.054202 39.112649 -109.426296
LeftForeArm 2.487582 -0.000000 20.977749
LeftHand 9.851591 -0.000000 -5.063220
LeftHandThumb1 -26.253704 0.000000 33.147579
RightShoulder -32.920350 -22.504360 -22.243209
RightArm -32.568868 59.764449 63.644996
RightForeArm 35.130450 -0.000000 98.886561
RightHand 24.457946 -0.000000 -59.724931
RightHandThumb1 -24.326973 -0.000000 -32.862282
LeftUpLeg 11.971932 16.709372 -0.345653
LeftLeg -1.028638 -0.000000 0.000000
LeftFoot -21.767133 20.449556 -25.542321
LeftToeBase 15.677701 -0.000000 -0.000000
RightUpLeg -0.695498 12.586783 5.876407
RightLeg 10.542296 -0.000000 -0.000000
RightFoot -9.425339 -4.889496 10.201925
RightToeBase 9.121862 -0.000000 -0.000000
3470
root 3.791969 32.308909 2.473333 -0.791546 -29.214201 -1.854283
Spine 4.528983 -17.366587 -4.067181
Head 13.120043 30.340615 11.928399
LeftShoulder -14.327363 4.018909 31.148928
LeftArm -10.080168 39.109545 -109.463674
LeftForeArm 2.563167 0.000000 20.927113
LeftHand 9.830029 0.000000 -5.107559
LeftHandThumb1 -26.253704 0.000000 33.147579
RightShoulder -32.916051 -22.484734 -22.246092
RightArm -32.588948 59.836048 63.630657
RightForeArm 35.147084 -0.000000 98.861823
RightHand 24.502160 0.000000 -59.812767
RightHandThumb1 -24.326973 -0.000000 -32.862282
LeftUpLeg 12.006383 16.718986 -0.322653
LeftLeg -1.060126 -0.000000 0.000000
LeftFoot -21.755916 20.471997 -25.521148
LeftToeBase 15.566427 -0.000000 -0.000000
RightUpLeg -0.668790 12.575039 5.891071
RightLeg 10.528754 -0.000000 -0.000000
RightFoot -9.428215 -4.855929 10.225235
RightToeBase 9.149530 -0.000000 -0.000000
3471
root 3.784865 32.308531 2.478352 -0.793847 -29.228900 -1.867764
Spine 4.526659 -17.351144 -4.050389
Head 13.152208 30.371316 11.944020
LeftShoulder -14.322243 4.019004 31.153639
LeftArm -10.134864 39.109281 -109.504340
LeftForeArm 2.592772 -0.000000 20.878087
LeftHand 9.846905 -0.000000 -5.146142
LeftHandThumb1 -26.253704 0.000000 33.147579
RightShoulder -32.909535 -22.439858 -22.259867
RightArm -32.643808 59.901827 63.582274
RightForeArm 35.159687 -0.000000 98.855038
RightHand 24.522120 -0.000000 -59.933588
RightHandThumb1 -24.326973 -0.000000 -32.862282
LeftUpLeg 12.048670 16.732698 -0.298605
LeftLeg -1.092405 -0.000000 0.000000
LeftFoot -21.755795 20.483161 -25.514592
LeftToeBase 15.610692 -0.000000 -0.000000
RightUpLeg -0.637856 12.553108 5.913733
RightLeg 10.507683 -0.000000 -0.000000
RightFoot -9.397264 -4.846334 10.145710
RightToeBase 9.033039 -0.000000 -0.000000
3472
root 3.779282 32.307798 2.483166 -0.796470 -29.249355 -1.866430
Spine 4.516245 -17.327340 -4.050399
Head 13.184749 30.355130 11.967667
LeftShoulder -14.305380 4.047291 31.163411
LeftArm -10.152170 39.118336 -109.521785
LeftForeArm 2.590943 -0.000000 20.824261
LeftHand 9.770335 -0.000000 -5.139958
LeftHandThumb1 -26.253704 0.000000 33.147579
RightShoulder -32.904106 -22.408993 -22.257331
RightArm -32.687019 59.969196 63.536254
RightForeArm 35.216886 -0.000000 98.857410
RightHand 24.527729 -0.000000 -60.075539
RightHandThumb1 -24.326973 -0.000000 -32.862282
LeftUpLeg 12.070971 16.789953 -0.288117
LeftLeg -1.091492 -0.000000 0.000000
LeftFoot -21.755999 20.449396 -25.546392
LeftToeBase 15.546394 -0.000000 -0.000000
RightUpLeg -0.618986 12.535511 5.916268
RightLeg 10.498285 -0.000000 -0.000000
RightFoot -9.414591 -4.800798 10.165057
RightToeBase 9.134305 -0.000000 -0.000000
3473
root 3.771939 32.307197 2.488094 -0.797960 -29.269471 -1.890390
Spine 4.518205 -17.310041 -4.024640
Head 13.225738 30.364191 11.984385
LeftShoulder -14.298123 4.032500 31.170064
LeftArm -10.206913 39.141379 -109.555148
LeftForeArm 2.543074 -0.000000 20.768861
LeftHand 9.749321 -0.000000 -5.193912
LeftHandThumb1 -26.253704 0.000000 33.147579
RightShoulder -32.900711 -22.367733 -22.272248
RightArm -32.722701 60.041405 63.508823
RightForeArm 35.290255 0.000000 98.865299
RightHand 24.532851 -0.000000 -60.149006
RightHandThumb1 -24.326973 -0.000000 -32.862282
LeftUpLeg 12.118384 16.806321 -0.250669
LeftLeg -1.121227 -0.000000 0.000000
LeftFoot -21.768754 20.443202 -25.527848
LeftToeBase 15.707424 -0.000000 -0.000000
RightUpLeg -0.586117 12.527765 5.946137
RightLeg 10.483719 -0.000000 -0.000000
RightFoot -9.402874 -4.762562 10.186753
RightToeBase 9.177888 -0.000000 -0.000000
3474
root 3.766681 32.306831 2.493237 -0.803248 -29.281712 -1.900191
Spine 4.521078 -17.308072 -4.012390
Head 13.256225 30.352899 11.998052
LeftShoulder -14.293288 4.027048 31.178346
LeftArm -10.238091 39.171507 -109.577523
LeftForeArm 2.462280 -0.000000 20.697281
LeftHand 9.761850 0.000000 -5.179761
LeftHandThumb1 -26.253704 0.000000 33.147579
RightShoulder -32.896529 -22.332020 -22.270652
RightArm -32.734722 60.085622 63.485558
RightForeArm 35.371012 -0.000000 98.875643
RightHand 24.520027 -0.000000 -60.237473
RightHandThumb1 -24.326973 -0.000000 -32.862282
LeftUpLeg 12.159572 16.814125 -0.230535
LeftLeg -1.162345 -0.000000 0.000000
LeftFoot -21.748391 20.480497 -25.504771
LeftToeBase 15.579827 -0.000000 -0.000000
RightUpLeg -0.551618 12.514316 5.960953
RightLeg 10.461877 -0.000000 -0.000000
RightFoot -9.400449 -4.744720 10.165120
RightToeBase 9.173840 -0.000000 -0.000000
